#Comment line ignore any data following # character 
#Hierarchical Translation and Rotation (.htr) file 
[Header]	
#Header keywords are followed by a single value 
FileType HTR		#Single word string
DataType HTRS		#Translation followed by rotation and scale data
FileVersion 1		#integer
NumSegments 84		#integer
NumFrames 2		#integer
DataFrameRate 30		#integer, data frame rate in this file
EulerRotationOrder ZYX
CalibrationUnits mm
RotationUnits Degrees
GlobalAxisofGravity Y
BoneLengthAxis Y
ScaleFactor 1.00
[SegmentNames&Hierarchy]
#CHILD	PARENT
MASTER GLOBAL
root MASTER
chest root
L_mid_tent01 root
R_mid_tent01 root
spine01 root
Bip01_Neck chest
L_humerus chest
R_humerus chest
weapon_bone chest
Bip01_Head Bip01_Neck
eye_left_bone Bip01_Head
eye_right_bone Bip01_Head
L_forearm L_humerus
L_front_hand L_forearm
L_weapon_bone L_forearm
L_front_hand01_01 L_front_hand
L_front_hand02_01 L_front_hand
L_front_hand03_01 L_front_hand
L_front_hand01_02 L_front_hand01_01
L_front_hand02_02 L_front_hand02_01
L_front_hand03_02 L_front_hand03_01
R_forearm R_humerus
R_front_hand R_forearm
R_weapon_bone R_forearm
R_front_hand01_01 R_front_hand
R_front_hand02_01 R_front_hand
R_front_hand03_01 R_front_hand
R_front_hand01_02 R_front_hand01_01
R_front_hand02_02 R_front_hand02_01
R_front_hand03_02 R_front_hand03_01
null_rope01_connect L_mid_tent01
Rope1_Seg01 null_rope01_connect
Rope1_Seg02 Rope1_Seg01
Rope1_Seg03 Rope1_Seg02
Rope1_Seg04 Rope1_Seg03
Rope1_Seg05 Rope1_Seg04
Rope1_Seg06 Rope1_Seg05
Rope1_Seg07 Rope1_Seg06
Rope1_Seg09 Rope1_Seg07
L_mid_hand01 Rope1_Seg09
L_mid_hand02 Rope1_Seg09
L_mid_hand03 Rope1_Seg09
null_rope02_connect R_mid_tent01
Rope2_Seg01 null_rope02_connect
Rope2_Seg02 Rope2_Seg01
Rope2_Seg03 Rope2_Seg02
Rope2_Seg04 Rope2_Seg03
Rope2_Seg05 Rope2_Seg04
Rope2_Seg06 Rope2_Seg05
Rope2_Seg07 Rope2_Seg06
Rope2_Seg09 Rope2_Seg07
R_mid_hand01 Rope2_Seg09
R_mid_hand02 Rope2_Seg09
R_mid_hand03 Rope2_Seg09
spine02 spine01
spine03 spine02
pelvis spine03
null_rope03_connect pelvis
null_rope04_connect pelvis
Rope3_Seg01 null_rope03_connect
Rope3_Seg02 Rope3_Seg01
Rope3_Seg03 Rope3_Seg02
Rope3_Seg04 Rope3_Seg03
Rope3_Seg05 Rope3_Seg04
Rope3_Seg06 Rope3_Seg05
Rope3_Seg07 Rope3_Seg06
Rope3_Seg08 Rope3_Seg07
Rope3_Seg09 Rope3_Seg08
R_rear_hand01 Rope3_Seg09
R_rear_hand02 Rope3_Seg09
R_rear_hand03 Rope3_Seg09
Rope4_Seg01 null_rope04_connect
Rope4_Seg02 Rope4_Seg01
Rope4_Seg03 Rope4_Seg02
Rope4_Seg04 Rope4_Seg03
Rope4_Seg05 Rope4_Seg04
Rope4_Seg06 Rope4_Seg05
Rope4_Seg07 Rope4_Seg06
Rope4_Seg08 Rope4_Seg07
Rope4_Seg09 Rope4_Seg08
L_rear_hand01 Rope4_Seg09
L_rear_hand02 Rope4_Seg09
L_rear_hand03 Rope4_Seg09
[BasePosition]
#SegmentName Tx, Ty, Tz, Rx, Ry, Rz, BoneLength
MASTER 0.000000 0.000000 0.000000 -90.000000 0.000000 0.000000 10.000000 
root 0.000000 0.000000 0.000000 0.000000 0.000000 0.000000 10.000000 
chest 0.000000 0.000000 0.000000 0.000000 0.000000 0.000000 10.000000 
L_mid_tent01 0.000000 0.000000 0.000000 0.000000 0.000000 0.000000 10.000000 
R_mid_tent01 0.000000 0.000000 0.000000 0.000000 0.000000 0.000000 10.000000 
spine01 0.000000 0.000000 0.000000 0.000000 0.000000 0.000000 10.000000 
Bip01_Neck 0.000000 0.000000 0.000000 0.000000 0.000000 0.000000 10.000000 
L_humerus 0.000000 0.000000 0.000000 0.000000 0.000000 0.000000 10.000000 
R_humerus 0.000000 0.000000 0.000000 0.000000 0.000000 0.000000 10.000000 
weapon_bone 0.000000 0.000000 0.000000 0.000000 0.000000 0.000000 10.000000 
Bip01_Head 0.000000 0.000000 0.000000 0.000000 0.000000 0.000000 10.000000 
eye_left_bone 0.000000 0.000000 0.000000 0.000000 0.000000 0.000000 10.000000 
eye_right_bone 0.000000 0.000000 0.000000 0.000000 0.000000 0.000000 10.000000 
L_forearm 0.000000 0.000000 0.000000 0.000000 0.000000 0.000000 10.000000 
L_front_hand 0.000000 0.000000 0.000000 0.000000 0.000000 0.000000 10.000000 
L_weapon_bone 0.000000 0.000000 0.000000 0.000000 0.000000 0.000000 10.000000 
L_front_hand01_01 0.000000 0.000000 0.000000 0.000000 0.000000 0.000000 10.000000 
L_front_hand02_01 0.000000 0.000000 0.000000 0.000000 0.000000 0.000000 10.000000 
L_front_hand03_01 0.000000 0.000000 0.000000 0.000000 0.000000 0.000000 10.000000 
L_front_hand01_02 0.000000 0.000000 0.000000 0.000000 0.000000 0.000000 10.000000 
L_front_hand02_02 0.000000 0.000000 0.000000 0.000000 0.000000 0.000000 10.000000 
L_front_hand03_02 0.000000 0.000000 0.000000 0.000000 0.000000 0.000000 10.000000 
R_forearm 0.000000 0.000000 0.000000 0.000000 0.000000 0.000000 10.000000 
R_front_hand 0.000000 0.000000 0.000000 0.000000 0.000000 0.000000 10.000000 
R_weapon_bone 0.000000 0.000000 0.000000 0.000000 0.000000 0.000000 10.000000 
R_front_hand01_01 0.000000 0.000000 0.000000 0.000000 0.000000 0.000000 10.000000 
R_front_hand02_01 0.000000 0.000000 0.000000 0.000000 0.000000 0.000000 10.000000 
R_front_hand03_01 0.000000 0.000000 0.000000 0.000000 0.000000 0.000000 10.000000 
R_front_hand01_02 0.000000 0.000000 0.000000 0.000000 0.000000 0.000000 10.000000 
R_front_hand02_02 0.000000 0.000000 0.000000 0.000000 0.000000 0.000000 10.000000 
R_front_hand03_02 0.000000 0.000000 0.000000 0.000000 0.000000 0.000000 10.000000 
null_rope01_connect 0.000000 0.000000 0.000000 0.000000 0.000000 0.000000 10.000000 
Rope1_Seg01 0.000000 0.000000 0.000000 0.000000 0.000000 0.000000 10.000000 
Rope1_Seg02 0.000000 0.000000 0.000000 0.000000 0.000000 0.000000 10.000000 
Rope1_Seg03 0.000000 0.000000 0.000000 0.000000 0.000000 0.000000 10.000000 
Rope1_Seg04 0.000000 0.000000 0.000000 0.000000 0.000000 0.000000 10.000000 
Rope1_Seg05 0.000000 0.000000 0.000000 0.000000 0.000000 0.000000 10.000000 
Rope1_Seg06 0.000000 0.000000 0.000000 0.000000 0.000000 0.000000 10.000000 
Rope1_Seg07 0.000000 0.000000 0.000000 0.000000 0.000000 0.000000 10.000000 
Rope1_Seg09 0.000000 0.000000 0.000000 0.000000 0.000000 0.000000 10.000000 
L_mid_hand01 0.000000 0.000000 0.000000 0.000000 0.000000 0.000000 10.000000 
L_mid_hand02 0.000000 0.000000 0.000000 0.000000 0.000000 0.000000 10.000000 
L_mid_hand03 0.000000 0.000000 0.000000 0.000000 0.000000 0.000000 10.000000 
null_rope02_connect 0.000000 0.000000 0.000000 0.000000 0.000000 0.000000 10.000000 
Rope2_Seg01 0.000000 0.000000 0.000000 0.000000 0.000000 0.000000 10.000000 
Rope2_Seg02 0.000000 0.000000 0.000000 0.000000 0.000000 0.000000 10.000000 
Rope2_Seg03 0.000000 0.000000 0.000000 0.000000 0.000000 0.000000 10.000000 
Rope2_Seg04 0.000000 0.000000 0.000000 0.000000 0.000000 0.000000 10.000000 
Rope2_Seg05 0.000000 0.000000 0.000000 0.000000 0.000000 0.000000 10.000000 
Rope2_Seg06 0.000000 0.000000 0.000000 0.000000 0.000000 0.000000 10.000000 
Rope2_Seg07 0.000000 0.000000 0.000000 0.000000 0.000000 0.000000 10.000000 
Rope2_Seg09 0.000000 0.000000 0.000000 0.000000 0.000000 0.000000 10.000000 
R_mid_hand01 0.000000 0.000000 0.000000 0.000000 0.000000 0.000000 10.000000 
R_mid_hand02 0.000000 0.000000 0.000000 0.000000 0.000000 0.000000 10.000000 
R_mid_hand03 0.000000 0.000000 0.000000 0.000000 0.000000 0.000000 10.000000 
spine02 0.000000 0.000000 0.000000 0.000000 0.000000 0.000000 10.000000 
spine03 0.000000 0.000000 0.000000 0.000000 0.000000 0.000000 10.000000 
pelvis 0.000000 0.000000 0.000000 0.000000 0.000000 0.000000 10.000000 
null_rope03_connect 0.000000 0.000000 0.000000 0.000000 0.000000 0.000000 10.000000 
null_rope04_connect 0.000000 0.000000 0.000000 0.000000 0.000000 0.000000 10.000000 
Rope3_Seg01 0.000000 0.000000 0.000000 0.000000 0.000000 0.000000 10.000000 
Rope3_Seg02 0.000000 0.000000 0.000000 0.000000 0.000000 0.000000 10.000000 
Rope3_Seg03 0.000000 0.000000 0.000000 0.000000 0.000000 0.000000 10.000000 
Rope3_Seg04 0.000000 0.000000 0.000000 0.000000 0.000000 0.000000 10.000000 
Rope3_Seg05 0.000000 0.000000 0.000000 0.000000 0.000000 0.000000 10.000000 
Rope3_Seg06 0.000000 0.000000 0.000000 0.000000 0.000000 0.000000 10.000000 
Rope3_Seg07 0.000000 0.000000 0.000000 0.000000 0.000000 0.000000 10.000000 
Rope3_Seg08 0.000000 0.000000 0.000000 0.000000 0.000000 0.000000 10.000000 
Rope3_Seg09 0.000000 0.000000 0.000000 0.000000 0.000000 0.000000 10.000000 
R_rear_hand01 0.000000 0.000000 0.000000 0.000000 0.000000 0.000000 10.000000 
R_rear_hand02 0.000000 0.000000 0.000000 0.000000 0.000000 0.000000 10.000000 
R_rear_hand03 0.000000 0.000000 0.000000 0.000000 0.000000 0.000000 10.000000 
Rope4_Seg01 0.000000 0.000000 0.000000 0.000000 0.000000 0.000000 10.000000 
Rope4_Seg02 0.000000 0.000000 0.000000 0.000000 0.000000 0.000000 10.000000 
Rope4_Seg03 0.000000 0.000000 0.000000 0.000000 0.000000 0.000000 10.000000 
Rope4_Seg04 0.000000 0.000000 0.000000 0.000000 0.000000 0.000000 10.000000 
Rope4_Seg05 0.000000 0.000000 0.000000 0.000000 0.000000 0.000000 10.000000 
Rope4_Seg06 0.000000 0.000000 0.000000 0.000000 0.000000 0.000000 10.000000 
Rope4_Seg07 0.000000 0.000000 0.000000 0.000000 0.000000 0.000000 10.000000 
Rope4_Seg08 0.000000 0.000000 0.000000 0.000000 0.000000 0.000000 10.000000 
Rope4_Seg09 0.000000 0.000000 0.000000 0.000000 0.000000 0.000000 10.000000 
L_rear_hand01 0.000000 0.000000 0.000000 0.000000 0.000000 0.000000 10.000000 
L_rear_hand02 0.000000 0.000000 0.000000 0.000000 0.000000 0.000000 10.000000 
L_rear_hand03 0.000000 0.000000 0.000000 0.000000 0.000000 0.000000 10.000000 
#Beginning of Data. Separated by tabs
#Fr	Tx	Ty	Tz	Rx	Ry	Rz	SF
[MASTER]
26 0.000000 0.000000 0.000000 0.001660 0.001660 0.001660 0.000000
27 0.000000 0.000000 0.000000 0.001660 0.001660 0.001660 0.000000
[root]
26 -16.502245 -199.343781 1093.534668 -85.747307 -61.785316 -93.080688 1111.678223
27 -16.502245 -199.343781 1093.534668 -85.747307 -61.785316 -93.080688 1111.678223
[chest]
26 -84.512650 -34.090519 0.000000 2.290126 -1.319523 -120.248543 91.129311
27 -84.512650 -34.090519 0.000000 2.283740 -1.310771 -120.153343 91.129311
[L_mid_tent01]
26 27.299500 22.177483 -249.917984 -16.827564 2.101198 131.802933 252.380859
27 27.299500 22.177483 -249.917984 -16.847973 2.082550 131.656357 252.380859
[R_mid_tent01]
26 23.228794 24.509907 226.238495 -175.100418 2.101083 120.843872 228.744751
27 23.228794 24.509907 226.238495 -175.092438 2.088039 120.746574 228.744751
[spine01]
26 -0.361383 -0.195265 0.000000 -0.000001 -0.000007 22.052340 0.410763
27 -0.361383 -0.195265 0.000000 -0.000001 -0.000007 22.052340 0.410763
[Bip01_Neck]
26 165.484543 71.581718 0.000119 175.896118 1.177290 24.871183 180.302734
27 165.484543 71.581718 0.000119 175.896118 1.177290 24.871183 180.302734
[L_humerus]
26 -13.983130 -135.272980 -120.471481 -91.668335 0.804969 -167.458282 181.680161
27 -13.983130 -135.272980 -120.471481 -91.668335 0.804969 -167.458282 181.680161
[R_humerus]
26 -13.983309 -135.273102 125.287651 103.000740 1.729733 -169.272232 184.909012
27 -13.983309 -135.273102 125.287651 103.000740 1.729733 -169.272232 184.909012
[weapon_bone]
26 235.964890 -300.705902 0.000000 0.000000 -89.951546 -128.212341 382.234833
27 235.964890 -300.705902 0.000000 0.000000 -89.951546 -128.212341 382.234833
[Bip01_Head]
26 102.819801 23.735466 5.410404 3.150732 3.423701 -20.839092 105.662460
27 102.819801 23.735464 5.410404 3.150732 3.423702 -20.839094 105.662460
[eye_left_bone]
26 -24.626970 125.451866 -64.772606 0.000000 -90.000000 -99.840431 143.318359
27 -24.626970 125.451866 -64.772606 0.000000 -90.000000 -99.840431 143.318359
[eye_right_bone]
26 -24.626970 125.451866 64.327362 0.000000 -89.960434 80.159386 143.117676
27 -24.626970 125.451866 64.327362 0.000000 -89.960434 80.159386 143.117676
[L_forearm]
26 322.776093 0.000000 -0.000119 0.000017 0.002347 -89.149834 322.776093
27 322.776093 0.000000 -0.000119 0.000017 0.002347 -89.149834 322.776093
[L_front_hand]
26 241.149185 -0.042021 -3.300071 -177.730789 -0.047459 -80.237228 241.171753
27 241.149185 -0.042021 -3.300071 -177.730499 -0.047942 -80.230186 241.171753
[L_weapon_bone]
26 156.183838 0.000000 0.000000 0.000014 0.000007 0.000001 156.183838
27 156.183838 0.000000 0.000000 0.000014 0.000007 0.000001 156.183838
[L_front_hand01_01]
26 86.095154 20.947098 -0.655860 0.405585 -0.442306 -4.620490 88.609184
27 86.095154 20.947098 -0.655860 0.405585 -0.442306 -4.620490 88.609184
[L_front_hand02_01]
26 86.935165 -11.437475 24.513514 116.959450 3.630817 1.495453 91.046425
27 86.935165 -11.437475 24.513514 116.959450 3.630817 1.495453 91.046425
[L_front_hand03_01]
26 86.637497 -14.123976 -20.424902 -118.420097 -4.656303 -0.152527 90.126129
27 86.637497 -14.123976 -20.424902 -118.420097 -4.656303 -0.152527 90.126129
[L_front_hand01_02]
26 71.020905 -0.000179 0.000030 0.000004 -0.000005 -8.379269 71.020905
27 71.020905 -0.000179 0.000030 0.000004 -0.000005 -8.379269 71.020905
[L_front_hand02_02]
26 71.020927 -0.000119 0.000060 -0.000005 -0.000004 -8.379259 71.020927
27 71.020927 -0.000119 0.000060 -0.000005 -0.000004 -8.379259 71.020927
[L_front_hand03_02]
26 71.020905 -0.000060 0.000060 0.000015 -0.000040 -8.379267 71.020905
27 71.020905 -0.000060 0.000060 0.000015 -0.000040 -8.379267 71.020905
[R_forearm]
26 322.776428 -0.000060 0.000030 0.210747 -0.039771 -80.474113 322.776428
27 322.776428 -0.000060 0.000030 0.210764 -0.039685 -80.520607 322.776428
[R_front_hand]
26 238.847015 -0.006795 2.210259 -1.671295 -0.429319 -93.142593 238.857239
27 238.847015 -0.006795 2.210259 -1.671625 -0.428792 -93.123123 238.857239
[R_weapon_bone]
26 155.664093 0.002503 -0.000030 0.003487 0.001180 -90.988930 155.664078
27 155.664093 0.002503 -0.000030 0.003487 0.001180 -90.988930 155.664078
[R_front_hand01_01]
26 87.624611 14.231146 22.918642 -116.960213 3.496675 -1.324139 91.683487
27 87.624611 14.231146 22.918642 -116.960213 3.496675 -1.324139 91.683487
[R_front_hand02_01]
26 89.356956 14.367283 -19.491137 118.419647 -4.257089 0.609827 92.579636
27 89.356956 14.367283 -19.491137 118.419647 -4.257089 0.609827 92.579636
[R_front_hand03_01]
26 87.286232 -22.307278 -0.143439 -0.387970 -0.231462 4.232001 90.091743
27 87.286232 -22.307278 -0.143439 -0.387970 -0.231462 4.232001 90.091743
[R_front_hand01_02]
26 71.020905 0.000060 0.000119 -0.000005 -0.000020 8.379271 71.020905
27 71.020905 0.000060 0.000119 -0.000005 -0.000020 8.379271 71.020905
[R_front_hand02_02]
26 71.020844 -0.000030 -0.000119 0.000000 -0.000021 8.379271 71.020836
27 71.020844 -0.000030 -0.000119 0.000000 -0.000021 8.379271 71.020836
[R_front_hand03_02]
26 71.020905 0.000000 0.000030 -0.000001 -0.000020 8.379275 71.020905
27 71.020905 0.000000 0.000030 -0.000001 -0.000020 8.379275 71.020905
[null_rope01_connect]
26 328.732483 0.000000 -0.000238 109.990685 -73.230217 -89.954208 328.732483
27 328.732483 0.000000 -0.000238 110.064964 -73.223106 -89.877510 328.732483
[Rope1_Seg01]
26 0.000000 0.000000 0.000000 76.250565 14.202765 80.803223 0.000000
27 0.000000 0.000000 0.000000 76.213379 14.520366 80.906723 0.000000
[Rope1_Seg02]
26 139.999863 -0.000179 0.000000 64.625870 -9.411462 41.370998 139.999863
27 139.999863 -0.000179 0.000000 64.344803 -9.555916 41.596413 139.999863
[Rope1_Seg03]
26 139.999924 0.000060 -0.000060 62.160542 18.390196 21.683414 139.999924
27 139.999924 0.000060 -0.000060 61.925385 18.124395 21.501623 139.999924
[Rope1_Seg04]
26 139.999924 -0.000060 -0.000119 13.812600 43.147961 -10.155569 139.999924
27 139.999924 -0.000060 -0.000119 14.261292 43.354580 -9.855356 139.999924
[Rope1_Seg05]
26 139.999832 0.000119 -0.000060 -0.298650 16.574825 -9.408305 139.999832
27 139.999832 0.000119 -0.000060 -0.292591 16.696272 -9.469378 139.999832
[Rope1_Seg06]
26 139.999954 0.000119 -0.000060 -0.368581 6.846931 -3.950115 139.999954
27 139.999954 0.000119 -0.000060 -0.370612 6.911270 -3.987762 139.999954
[Rope1_Seg07]
26 139.999985 0.000060 0.000000 -0.090838 1.638056 -0.934477 139.999985
27 139.999985 0.000060 0.000000 -0.091345 1.667716 -0.952648 139.999985
[Rope1_Seg09]
26 121.602913 0.000119 -0.000089 -89.793175 -1.359789 0.847147 121.602913
27 121.602913 0.000119 -0.000089 -89.793175 -1.359789 0.847147 121.602913
[L_mid_hand01]
26 103.859421 1.038730 8.195221 104.352036 0.341479 -0.444583 104.187431
27 103.859421 1.038730 8.195221 104.352036 0.341479 -0.444583 104.187431
[L_mid_hand02]
26 105.572853 -4.139662 -10.864139 -135.608444 3.905687 -3.381056 106.211075
27 105.572853 -4.139662 -10.864139 -135.608444 3.905687 -3.381056 106.211075
[L_mid_hand03]
26 104.641464 17.579376 -3.913581 -18.761518 -0.324361 2.942912 106.179977
27 104.641464 17.579376 -3.913581 -18.761515 -0.324361 2.942912 106.179977
[null_rope02_connect]
26 328.732849 0.000179 -0.000119 120.646622 84.639404 -90.343185 328.732849
27 328.732849 0.000179 -0.000119 120.912178 84.626595 -90.172203 328.732849
[Rope2_Seg01]
26 0.000076 0.000111 0.000153 -5.305460 50.206635 107.389946 0.000203
27 0.000076 0.000111 0.000153 -5.290149 50.245968 107.399086 0.000203
[Rope2_Seg02]
26 139.999741 -0.000060 -0.000119 -18.162113 -59.634247 -45.527832 139.999756
27 139.999741 -0.000060 -0.000119 -18.181215 -59.532524 -45.223217 139.999756
[Rope2_Seg03]
26 140.000107 0.000030 0.000000 -21.898130 -10.352926 -24.404758 140.000107
27 140.000107 0.000030 0.000000 -22.032583 -10.479559 -24.537071 140.000107
[Rope2_Seg04]
26 139.999802 0.000000 -0.000060 -21.016554 -11.903756 -35.107777 139.999802
27 139.999802 0.000000 -0.000060 -21.008862 -11.907797 -35.016788 139.999802
[Rope2_Seg05]
26 139.999985 -0.000060 0.000119 -9.778550 2.591517 -29.231653 139.999985
27 139.999985 -0.000060 0.000119 -9.835692 2.559077 -29.323563 139.999985
[Rope2_Seg06]
26 139.999893 -0.000030 -0.000119 -1.628924 3.190827 -11.603930 139.999893
27 139.999893 -0.000030 -0.000119 -1.638856 3.197744 -11.635840 139.999893
[Rope2_Seg07]
26 139.999893 0.000060 -0.000060 -0.242298 1.294246 -4.287793 139.999893
27 139.999893 0.000060 -0.000060 -0.243902 1.299108 -4.303909 139.999893
[Rope2_Seg09]
26 121.338966 0.000089 -0.000060 33.793236 -1.359788 -0.847141 121.338966
27 121.338966 0.000089 -0.000060 33.793236 -1.359788 -0.847141 121.338966
[R_mid_hand01]
26 104.680779 11.144459 -10.335981 -47.384258 2.963522 5.452604 105.778534
27 104.680779 11.144459 -10.335981 -47.384258 2.963522 5.452604 105.778534
[R_mid_hand02]
26 104.070427 2.443552 8.231699 75.626297 -2.250001 1.111093 104.424065
27 104.070427 2.443552 8.231699 75.626297 -2.250001 1.111093 104.424065
[R_mid_hand03]
26 106.028137 -11.221827 -5.996406 -164.381912 2.495983 -6.140520 106.788818
27 106.028137 -11.221827 -5.996406 -164.381927 2.495983 -6.140520 106.788818
[spine02]
26 129.756927 0.001550 0.000119 -3.665002 -2.800815 49.785065 129.756927
27 129.756927 0.001550 0.000119 -3.663157 -2.799619 49.752205 129.756927
[spine03]
26 79.115631 0.000000 -0.000119 5.821692 8.503026 54.713543 79.115631
27 79.115631 0.000000 -0.000119 5.814659 8.487239 54.697475 79.115631
[pelvis]
26 169.435242 0.051022 0.000000 -7.755754 -2.945594 14.978477 169.435257
27 169.435242 0.051022 0.000000 -7.739067 -2.941993 14.943640 169.435257
[null_rope03_connect]
26 -1.257226 -2.466202 137.391083 145.108032 -84.121201 -134.541183 137.418976
27 -1.257226 -2.466202 137.391083 145.180939 -84.136086 -134.491089 137.418976
[null_rope04_connect]
26 -1.259640 -2.480268 -137.844437 145.108032 -84.121201 -134.541183 137.872513
27 -1.259640 -2.480268 -137.844437 145.180939 -84.136086 -134.491089 137.872513
[Rope3_Seg01]
26 0.000010 0.000038 -0.000114 -168.192322 73.053352 -104.666985 0.000121
27 0.000010 0.000038 -0.000114 -168.267029 73.091362 -104.726517 0.000121
[Rope3_Seg02]
26 139.999924 -0.000119 0.000060 -11.406831 -20.199112 12.181485 139.999924
27 139.999924 -0.000119 0.000060 -11.378591 -20.163544 12.149153 139.999924
[Rope3_Seg03]
26 139.999924 -0.000119 0.000119 -21.335861 -46.912437 24.250668 139.999924
27 139.999924 -0.000119 0.000119 -21.306301 -46.869122 24.208370 139.999924
[Rope3_Seg04]
26 139.999924 0.000119 0.000000 -0.343664 -22.801352 4.264538 139.999924
27 139.999924 0.000119 0.000000 -0.351104 -22.828035 4.271371 139.999924
[Rope3_Seg05]
26 139.999924 -0.000238 0.000060 8.923921 -62.966061 17.047647 139.999924
27 139.999924 -0.000238 0.000060 8.927544 -62.899349 16.994192 139.999924
[Rope3_Seg06]
26 139.999893 -0.000119 -0.000060 11.463449 -39.860546 26.269909 139.999893
27 139.999893 -0.000119 -0.000060 11.466793 -39.965893 26.310917 139.999893
[Rope3_Seg07]
26 139.999771 0.000060 -0.000119 2.872634 -5.013052 5.847700 139.999771
27 139.999771 0.000060 -0.000119 2.873349 -5.016144 5.850574 139.999771
[Rope3_Seg08]
26 139.999985 -0.000060 0.000000 1.458202 -1.915989 2.488462 139.999985
27 139.999985 -0.000060 0.000000 1.459127 -1.917519 2.490407 139.999985
[Rope3_Seg09]
26 90.185997 -0.000179 -0.000060 89.793228 -1.359877 -0.847183 90.185997
27 90.185997 -0.000179 -0.000060 89.793228 -1.359877 -0.847183 90.185997
[R_rear_hand01]
26 103.366196 -6.073594 -10.757982 -156.049316 6.070419 -2.795869 104.101845
27 103.366196 -6.073594 -10.757982 -156.049316 6.070419 -2.795869 104.101845
[R_rear_hand02]
26 100.509819 12.039542 -7.992327 -38.708435 1.958051 5.461186 101.543350
27 100.509819 12.039542 -7.992327 -38.708435 1.958051 5.461186 101.543350
[R_rear_hand03]
26 101.539970 5.215704 5.435467 84.307625 -2.361032 4.099037 101.819031
27 101.539970 5.215704 5.435467 84.307625 -2.361032 4.099037 101.819031
[Rope4_Seg01]
26 -0.000000 0.000038 -0.000191 83.564117 76.629311 -77.324173 0.000195
27 -0.000001 0.000037 -0.000192 83.568153 76.657524 -77.331360 0.000196
[Rope4_Seg02]
26 139.999985 0.000060 0.000119 5.220071 5.971707 -15.140670 139.999985
27 139.999985 0.000060 0.000119 5.205631 5.953083 -15.108708 139.999985
[Rope4_Seg03]
26 139.999924 0.000000 -0.000238 4.726306 11.912120 -50.318760 139.999924
27 139.999924 0.000000 -0.000238 4.732553 11.902092 -50.235523 139.999924
[Rope4_Seg04]
26 139.999985 0.000000 0.000119 -2.994025 2.947464 -35.505367 139.999985
27 139.999985 0.000000 0.000119 -2.992724 2.954882 -35.549732 139.999985
[Rope4_Seg05]
26 139.999802 -0.000060 -0.000119 -9.700187 6.488321 -32.401901 139.999802
27 139.999802 -0.000060 -0.000119 -9.673347 6.473861 -32.346577 139.999802
[Rope4_Seg06]
26 139.999924 0.000000 0.000060 -21.903872 14.927416 -47.532864 139.999924
27 139.999924 0.000000 0.000060 -21.917301 14.915501 -47.578533 139.999924
[Rope4_Seg07]
26 139.999802 0.000000 0.000000 -5.463338 9.651737 -14.232024 139.999802
27 139.999802 0.000000 0.000000 -5.478686 9.668621 -14.266935 139.999802
[Rope4_Seg08]
26 139.999924 0.000000 0.000119 -2.359197 2.443429 -3.027602 139.999924
27 139.999924 0.000000 0.000119 -2.362594 2.451056 -3.037737 139.999924
[Rope4_Seg09]
26 90.185791 0.000060 0.000060 -135.617828 2.228885 0.850567 90.185791
27 90.185791 0.000060 0.000060 -135.617828 2.228885 0.850567 90.185791
[L_rear_hand01]
26 101.696655 -8.392275 -7.654577 -38.746338 0.246096 177.290207 102.329041
27 101.696655 -8.392275 -7.654577 -38.746338 0.246096 177.290207 102.329041
[L_rear_hand02]
26 102.726799 -1.568258 5.773216 84.314880 -1.139137 176.250763 102.900848
27 102.726799 -1.568258 5.773216 84.314880 -1.139137 176.250763 102.900848
[L_rear_hand03]
26 104.552910 9.721220 -10.420293 -155.747955 -4.630845 179.564758 105.519653
27 104.552910 9.721220 -10.420293 -155.747955 -4.630845 179.564758 105.519653
